  0
SECTION
  2
HEADER
  9
$ACADVER
  1
AC1009
  9
$INSBASE
 10
0.0
 20
0.0
 30
0.0
  9
$EXTMIN
 10
0.0
 20
0.0
 30
0.0
  9
$EXTMAX
 10
0.0
 20
0.0
 30
0.0
  0
ENDSEC
  0
SECTION
  2
TABLES
  0
TABLE
  2
VPORT
 70
0
  0
ENDTAB
  0
TABLE
  2
LTYPE
 70
1
  0
LTYPE
  2
CONTINUOUS
 70
0
  3
Solid line
 72
65
 73
0
 40
0.0
  0
ENDTAB
  0
TABLE
  2
LAYER
 70
1
  0
LAYER
  2
0
 70
64
 62
7
  6
continuous
  0
ENDTAB
  0
TABLE
  2
STYLE
 70
1
  0
STYLE
  2
STANDARD
 70
0
 40
0
 41
1.0
 50
0.0
 71
0
 42
1
 3
ARIAL.TTF
 4

  0
ENDTAB
  0
TABLE
  2
VIEW
 70
0
  0
ENDTAB
  0
ENDSEC
  0
SECTION
  2
BLOCKS
  0
BLOCK
  8
0
  2
FILLET
 70
0
 10
0.0
 20
0.0
 30
0.0
  3
FILLET
  0
LINE
  8
0
 62
0
 10
-239.5
 20
22.0
 30
0.0
 11
239.5
 21
22.0
 31
0.0
  0
ARC
  8
0
 62
0
 10
-239.5
 20
20.0
 30
0.0
 40
2.0
 50
90.0
 51
-180.0
  0
ARC
  8
0
 62
0
 10
239.5
 20
20.0
 30
0.0
 40
2.0
 50
-0.0
 51
90.0
  0
LINE
  8
0
 62
0
 10
-241.5
 20
20.0
 30
0.0
 11
-241.5
 21
-20.0
 31
0.0
  0
LINE
  8
0
 62
0
 10
241.5
 20
20.0
 30
0.0
 11
241.5
 21
-20.0
 31
0.0
  0
ARC
  8
0
 62
0
 10
-239.5
 20
-20.0
 30
0.0
 40
2.0
 50
180.0
 51
-90.0
  0
ARC
  8
0
 62
0
 10
239.5
 20
-20.0
 30
0.0
 40
2.0
 50
-90.0
 51
0.0
  0
LINE
  8
0
 62
0
 10
-239.5
 20
-22.0
 30
0.0
 11
239.5
 21
-22.0
 31
0.0
  0
LINE
  8
0
 62
0
 10
-175.5
 20
-6.9
 30
0.0
 11
-175.5
 21
6.9
 31
0.0
  0
LINE
  8
0
 62
0
 10
-175.5
 20
6.9
 30
0.0
 11
-134.5
 21
6.9
 31
0.0
  0
LINE
  8
0
 62
0
 10
-134.5
 20
6.9
 30
0.0
 11
-134.5
 21
-6.9
 31
0.0
  0
LINE
  8
0
 62
0
 10
-175.5
 20
-6.9
 30
0.0
 11
-134.5
 21
-6.9
 31
0.0
  0
LINE
  8
0
 62
0
 10
147.65
 20
4.2
 30
0.0
 11
159.95
 21
4.2
 31
0.0
  0
LINE
  8
0
 62
0
 10
159.95
 20
4.2
 30
0.0
 11
159.95
 21
-11.9
 31
0.0
  0
LINE
  8
0
 62
0
 10
159.95
 20
-11.9
 30
0.0
 11
147.65
 21
-11.9
 31
0.0
  0
LINE
  8
0
 62
0
 10
147.65
 20
-11.9
 30
0.0
 11
147.65
 21
4.2
 31
0.0
  0
LINE
  8
0
 62
0
 10
39.3
 20
14.35
 30
0.0
 11
43.1
 21
14.35
 31
0.0
  0
LINE
  8
0
 62
0
 10
43.1
 20
14.35
 30
0.0
 11
43.1
 21
3.75
 31
0.0
  0
LINE
  8
0
 62
0
 10
43.1
 20
3.75
 30
0.0
 11
39.3
 21
3.75
 31
0.0
  0
LINE
  8
0
 62
0
 10
39.3
 20
3.75
 30
0.0
 11
39.3
 21
14.35
 31
0.0
  0
LINE
  8
0
 62
0
 10
39.3
 20
-3.75
 30
0.0
 11
43.1
 21
-3.75
 31
0.0
  0
LINE
  8
0
 62
0
 10
43.1
 20
-3.75
 30
0.0
 11
43.1
 21
-14.35
 31
0.0
  0
LINE
  8
0
 62
0
 10
43.1
 20
-14.35
 30
0.0
 11
39.3
 21
-14.35
 31
0.0
  0
LINE
  8
0
 62
0
 10
39.3
 20
-14.35
 30
0.0
 11
39.3
 21
-3.75
 31
0.0
  0
LINE
  8
0
 62
0
 10
21.8
 20
1.9
 30
0.0
 11
32.4
 21
1.9
 31
0.0
  0
LINE
  8
0
 62
0
 10
32.4
 20
1.9
 30
0.0
 11
32.4
 21
-1.9
 31
0.0
  0
LINE
  8
0
 62
0
 10
32.4
 20
-1.9
 30
0.0
 11
21.8
 21
-1.9
 31
0.0
  0
LINE
  8
0
 62
0
 10
21.8
 20
-1.9
 30
0.0
 11
21.8
 21
1.9
 31
0.0
  0
LINE
  8
0
 62
0
 10
3.7
 20
1.9
 30
0.0
 11
14.3
 21
1.9
 31
0.0
  0
LINE
  8
0
 62
0
 10
14.3
 20
1.9
 30
0.0
 11
14.3
 21
-1.9
 31
0.0
  0
LINE
  8
0
 62
0
 10
14.3
 20
-1.9
 30
0.0
 11
3.7
 21
-1.9
 31
0.0
  0
LINE
  8
0
 62
0
 10
3.7
 20
-1.9
 30
0.0
 11
3.7
 21
1.9
 31
0.0
  0
LINE
  8
0
 62
0
 10
211.1
 20
1.9
 30
0.0
 11
221.7
 21
1.9
 31
0.0
  0
LINE
  8
0
 62
0
 10
221.7
 20
1.9
 30
0.0
 11
221.7
 21
-1.9
 31
0.0
  0
LINE
  8
0
 62
0
 10
221.7
 20
-1.9
 30
0.0
 11
211.1
 21
-1.9
 31
0.0
  0
LINE
  8
0
 62
0
 10
211.1
 20
-1.9
 30
0.0
 11
211.1
 21
1.9
 31
0.0
  0
LINE
  8
0
 62
0
 10
193.0
 20
1.9
 30
0.0
 11
203.6
 21
1.9
 31
0.0
  0
LINE
  8
0
 62
0
 10
203.6
 20
1.9
 30
0.0
 11
203.6
 21
-1.9
 31
0.0
  0
LINE
  8
0
 62
0
 10
203.6
 20
-1.9
 30
0.0
 11
193.0
 21
-1.9
 31
0.0
  0
LINE
  8
0
 62
0
 10
193.0
 20
-1.9
 30
0.0
 11
193.0
 21
1.9
 31
0.0
  0
LINE
  8
0
 62
0
 10
182.3
 20
14.35
 30
0.0
 11
186.1
 21
14.35
 31
0.0
  0
LINE
  8
0
 62
0
 10
186.1
 20
14.35
 30
0.0
 11
186.1
 21
3.75
 31
0.0
  0
LINE
  8
0
 62
0
 10
186.1
 20
3.75
 30
0.0
 11
182.3
 21
3.75
 31
0.0
  0
LINE
  8
0
 62
0
 10
182.3
 20
3.75
 30
0.0
 11
182.3
 21
14.35
 31
0.0
  0
LINE
  8
0
 62
0
 10
182.3
 20
-3.75
 30
0.0
 11
186.1
 21
-3.75
 31
0.0
  0
LINE
  8
0
 62
0
 10
186.1
 20
-3.75
 30
0.0
 11
186.1
 21
-14.35
 31
0.0
  0
LINE
  8
0
 62
0
 10
186.1
 20
-14.35
 30
0.0
 11
182.3
 21
-14.35
 31
0.0
  0
LINE
  8
0
 62
0
 10
182.3
 20
-14.35
 30
0.0
 11
182.3
 21
-3.75
 31
0.0
  0
CIRCLE
  8
0
 62
0
 10
170.15
 20
-11.5
 30
0.0
 40
2.5
  0
CIRCLE
  8
0
 62
0
 10
170.15
 20
11.5
 30
0.0
 40
2.5
  0
CIRCLE
  8
0
 62
0
 10
-50.0
 20
10.0
 30
0.0
 40
1.7
  0
CIRCLE
  8
0
 62
0
 10
-50.0
 20
-10.0
 30
0.0
 40
1.7
  0
CIRCLE
  8
0
 62
0
 10
-15.0
 20
-10.0
 30
0.0
 40
1.7
  0
CIRCLE
  8
0
 62
0
 10
-15.0
 20
10.0
 30
0.0
 40
1.7
  0
CIRCLE
  8
0
 62
0
 10
-25.0
 20
-10.0
 30
0.0
 40
1.7
  0
CIRCLE
  8
0
 62
0
 10
-25.0
 20
10.0
 30
0.0
 40
1.7
  0
CIRCLE
  8
0
 62
0
 10
18.05
 20
0.0
 30
0.0
 40
1.7
  0
CIRCLE
  8
0
 62
0
 10
-175.0
 20
-10.0
 30
0.0
 40
1.7
  0
CIRCLE
  8
0
 62
0
 10
-115.0
 20
10.0
 30
0.0
 40
1.7
  0
CIRCLE
  8
0
 62
0
 10
-175.1
 20
10.0
 30
0.0
 40
1.7
  0
CIRCLE
  8
0
 62
0
 10
-90.0
 20
-10.0
 30
0.0
 40
1.7
  0
CIRCLE
  8
0
 62
0
 10
-115.0
 20
-10.0
 30
0.0
 40
1.7
  0
CIRCLE
  8
0
 62
0
 10
-90.0
 20
10.0
 30
0.0
 40
1.7
  0
CIRCLE
  8
0
 62
0
 10
207.35
 20
0.0
 30
0.0
 40
1.7
  0
LINE
  8
0
 62
0
 10
-81.5
 20
12.0
 30
0.0
 11
-58.5
 21
12.0
 31
0.0
  0
ARC
  8
0
 62
0
 10
-81.5
 20
11.5
 30
0.0
 40
0.5
 50
90.0
 51
-180.0
  0
ARC
  8
0
 62
0
 10
-58.5
 20
11.5
 30
0.0
 40
0.5
 50
-0.0
 51
90.0
  0
LINE
  8
0
 62
0
 10
-82.0
 20
-11.5
 30
0.0
 11
-82.0
 21
11.5
 31
0.0
  0
LINE
  8
0
 62
0
 10
-58.0
 20
11.5
 30
0.0
 11
-58.0
 21
-11.5
 31
0.0
  0
ARC
  8
0
 62
0
 10
-81.5
 20
-11.5
 30
0.0
 40
0.5
 50
180.0
 51
-90.0
  0
ARC
  8
0
 62
0
 10
-58.5
 20
-11.5
 30
0.0
 40
0.5
 50
-90.0
 51
0.0
  0
LINE
  8
0
 62
0
 10
-58.5
 20
-12.0
 30
0.0
 11
-81.5
 21
-12.0
 31
0.0
  0
LINE
  8
0
 62
0
 10
169.15
 20
-5.5
 30
0.0
 11
165.15
 21
-5.5
 31
0.0
  0
ARC
  8
0
 62
0
 10
165.15
 20
-5.0
 30
0.0
 40
0.5
 50
180.0
 51
-90.0
  0
LINE
  8
0
 62
0
 10
169.15
 20
-5.5
 30
0.0
 11
171.15
 21
-5.5
 31
0.0
  0
LINE
  8
0
 62
0
 10
164.65
 20
-5.0
 30
0.0
 11
164.65
 21
5.0
 31
0.0
  0
LINE
  8
0
 62
0
 10
173.15
 20
-5.5
 30
0.0
 11
171.15
 21
-5.5
 31
0.0
  0
ARC
  8
0
 62
0
 10
165.15
 20
5.0
 30
0.0
 40
0.5
 50
90.0
 51
-180.0
  0
ARC
  8
0
 62
0
 10
173.15
 20
-5.0
 30
0.0
 40
0.5
 50
-90.0
 51
-0.0
  0
LINE
  8
0
 62
0
 10
165.15
 20
5.5
 30
0.0
 11
169.15
 21
5.5
 31
0.0
  0
LINE
  8
0
 62
0
 10
173.65
 20
5.0
 30
0.0
 11
173.65
 21
-5.0
 31
0.0
  0
LINE
  8
0
 62
0
 10
169.15
 20
5.5
 30
0.0
 11
171.15
 21
5.5
 31
0.0
  0
ARC
  8
0
 62
0
 10
173.15
 20
5.0
 30
0.0
 40
0.5
 50
0.0
 51
90.0
  0
LINE
  8
0
 62
0
 10
171.15
 20
5.5
 30
0.0
 11
173.15
 21
5.5
 31
0.0
  0
LINE
  8
0
 62
0
 10
-236.5
 20
18.861357
 30
0.0
 11
-226.5
 21
18.861357
 31
0.0
  0
ARC
  8
0
 62
0
 10
-236.5
 20
17.861357
 30
0.0
 40
1.0
 50
90.0
 51
-180.0
  0
ARC
  8
0
 62
0
 10
-226.5
 20
17.861357
 30
0.0
 40
1.0
 50
-0.0
 51
90.0
  0
LINE
  8
0
 62
0
 10
-237.5
 20
13.861357
 30
0.0
 11
-237.5
 21
17.861357
 31
0.0
  0
LINE
  8
0
 62
0
 10
-225.5
 20
17.861357
 30
0.0
 11
-225.5
 21
13.861357
 31
0.0
  0
ARC
  8
0
 62
0
 10
-236.5
 20
13.861357
 30
0.0
 40
1.0
 50
180.0
 51
-90.0
  0
ARC
  8
0
 62
0
 10
-226.5
 20
13.861357
 30
0.0
 40
1.0
 50
-90.0
 51
0.0
  0
LINE
  8
0
 62
0
 10
-226.5
 20
12.861357
 30
0.0
 11
-236.5
 21
12.861357
 31
0.0
  0
LINE
  8
0
 62
0
 10
226.5
 20
18.861357
 30
0.0
 11
236.5
 21
18.861357
 31
0.0
  0
ARC
  8
0
 62
0
 10
226.5
 20
17.861357
 30
0.0
 40
1.0
 50
90.0
 51
-180.0
  0
ARC
  8
0
 62
0
 10
236.5
 20
17.861357
 30
0.0
 40
1.0
 50
-0.0
 51
90.0
  0
LINE
  8
0
 62
0
 10
225.5
 20
13.861357
 30
0.0
 11
225.5
 21
17.861357
 31
0.0
  0
LINE
  8
0
 62
0
 10
237.5
 20
17.861357
 30
0.0
 11
237.5
 21
13.861357
 31
0.0
  0
ARC
  8
0
 62
0
 10
226.5
 20
13.861357
 30
0.0
 40
1.0
 50
180.0
 51
-90.0
  0
ARC
  8
0
 62
0
 10
236.5
 20
13.861357
 30
0.0
 40
1.0
 50
-90.0
 51
0.0
  0
LINE
  8
0
 62
0
 10
236.5
 20
12.861357
 30
0.0
 11
226.5
 21
12.861357
 31
0.0
  0
LINE
  8
0
 62
0
 10
-236.5
 20
-12.88
 30
0.0
 11
-226.5
 21
-12.88
 31
0.0
  0
ARC
  8
0
 62
0
 10
-236.5
 20
-13.88
 30
0.0
 40
1.0
 50
90.0
 51
-180.0
  0
ARC
  8
0
 62
0
 10
-226.5
 20
-13.88
 30
0.0
 40
1.0
 50
-0.0
 51
90.0
  0
LINE
  8
0
 62
0
 10
-237.5
 20
-17.88
 30
0.0
 11
-237.5
 21
-13.88
 31
0.0
  0
LINE
  8
0
 62
0
 10
-225.5
 20
-13.88
 30
0.0
 11
-225.5
 21
-17.88
 31
0.0
  0
ARC
  8
0
 62
0
 10
-236.5
 20
-17.88
 30
0.0
 40
1.0
 50
180.0
 51
-90.0
  0
ARC
  8
0
 62
0
 10
-226.5
 20
-17.88
 30
0.0
 40
1.0
 50
-90.0
 51
0.0
  0
LINE
  8
0
 62
0
 10
-226.5
 20
-18.88
 30
0.0
 11
-236.5
 21
-18.88
 31
0.0
  0
LINE
  8
0
 62
0
 10
226.5
 20
-12.88
 30
0.0
 11
236.5
 21
-12.88
 31
0.0
  0
ARC
  8
0
 62
0
 10
226.5
 20
-13.88
 30
0.0
 40
1.0
 50
90.0
 51
-180.0
  0
ARC
  8
0
 62
0
 10
236.5
 20
-13.88
 30
0.0
 40
1.0
 50
-0.0
 51
90.0
  0
LINE
  8
0
 62
0
 10
225.5
 20
-17.88
 30
0.0
 11
225.5
 21
-13.88
 31
0.0
  0
LINE
  8
0
 62
0
 10
237.5
 20
-13.88
 30
0.0
 11
237.5
 21
-17.88
 31
0.0
  0
ARC
  8
0
 62
0
 10
226.5
 20
-17.88
 30
0.0
 40
1.0
 50
180.0
 51
-90.0
  0
ARC
  8
0
 62
0
 10
236.5
 20
-17.88
 30
0.0
 40
1.0
 50
-90.0
 51
0.0
  0
LINE
  8
0
 62
0
 10
236.5
 20
-18.88
 30
0.0
 11
226.5
 21
-18.88
 31
0.0
  0
LINE
  8
0
 62
0
 10
-24.4
 20
4.1
 30
0.0
 11
-22.2
 21
4.1
 31
0.0
  0
ARC
  8
0
 62
0
 10
-24.4
 20
3.1
 30
0.0
 40
1.0
 50
90.0
 51
-180.0
  0
ARC
  8
0
 62
0
 10
-22.2
 20
3.1
 30
0.0
 40
1.0
 50
-0.0
 51
90.0
  0
LINE
  8
0
 62
0
 10
-25.4
 20
-3.1
 30
0.0
 11
-25.4
 21
3.1
 31
0.0
  0
LINE
  8
0
 62
0
 10
-21.2
 20
3.1
 30
0.0
 11
-21.2
 21
-3.1
 31
0.0
  0
ARC
  8
0
 62
0
 10
-24.4
 20
-3.1
 30
0.0
 40
1.0
 50
-180.0
 51
-90.0
  0
ARC
  8
0
 62
0
 10
-22.2
 20
-3.1
 30
0.0
 40
1.0
 50
-90.0
 51
0.0
  0
LINE
  8
0
 62
0
 10
-22.2
 20
-4.1
 30
0.0
 11
-24.4
 21
-4.1
 31
0.0
  0
ENDBLK
  0
ENDSEC
  0
SECTION
  2
ENTITIES
  0
INSERT
  2
FILLET
  8
0
 10
0.0
 20
0.0
 30
0.0
  0
ENDSEC
  0
EOF
